<?xml version="1.0" encoding="UTF-8"?>
<svg width="180px" height="91px" viewBox="0 0 180 91" version="1.1" xmlns="http://www.w3.org/2000/svg" xmlns:xlink="http://www.w3.org/1999/xlink">
    <title>Euromoney Institutional Investor PLC</title>
    <g id="Logo_EMII_PLC" stroke="none" stroke-width="1" fill="none" fill-rule="evenodd">
        <path d="M0,22.5945452 L0,21.7405299 C1.18761905,21.7405299 1.96428571,21.5442596 2.32666667,21.153155 C2.68952381,20.7615718 2.87190476,19.9037268 2.87190476,18.5791414 L2.87190476,4.01540383 C2.87190476,2.70278612 2.68952381,1.84733469 2.32666667,1.45000694 C1.96428571,1.05315789 1.18761905,0.854015311 0,0.854015311 L0,0 L15.9028571,0 L16.1171429,4.91968349 L15.1204762,4.91968349 C15.0438095,3.80525096 14.7742857,3.01633995 14.3138095,2.55342919 C13.6666667,1.89137584 12.4861905,1.56106722 10.7742857,1.56106722 L8.61809524,1.56106722 C7.80571429,1.56106722 7.2652381,1.72574282 6.99714286,2.05748756 C6.72761905,2.38683876 6.59333333,3.0369244 6.59333333,4.00630837 L6.59333333,9.98633038 L11.0042857,9.98633038 C12.1238095,9.98633038 12.8414286,9.78814522 13.16,9.39177488 C13.4119048,9.07199785 13.5380952,8.36686077 13.5380952,7.27588493 L14.4466667,7.27588493 L14.4466667,14.2870443 L13.5380952,14.2870443 C13.5380952,13.2425031 13.4009524,12.5493337 13.1271429,12.2075361 C12.7866667,11.7676033 12.0795238,11.5473976 11.0042857,11.5473976 L6.59333333,11.5473976 L6.59333333,18.5791414 C6.59333333,19.5963962 6.67,20.2258974 6.82428571,20.4690811 C7.0547619,20.8453457 7.65380952,21.033478 8.62142857,21.033478 L11.7204762,21.033478 C14.2480952,21.033478 15.567619,19.9137797 15.677619,17.6753404 L16.6447619,17.6753404 L16.4466667,22.5945452 L0,22.5945452 Z M30.8182381,22.9187264 L30.8182381,18.912418 L30.7525238,18.912418 C29.3558571,21.5831307 27.6396667,22.9187264 25.6049048,22.9187264 C23.8568095,22.9187264 22.6363333,22.4921974 21.9439524,21.6420118 C21.3934762,20.956023 21.1187143,19.8779723 21.1187143,18.4069022 L21.1187143,10.8930993 C21.1187143,9.91988569 20.923,9.22671632 20.530619,8.81167636 C20.1391905,8.39663641 19.485381,8.18935579 18.5691905,8.18935579 L18.5691905,7.45262397 L24.5182381,6.62780986 L24.5182381,15.6552878 C24.5182381,17.6869252 24.7001429,19.0622536 25.0634762,19.7803158 C25.4272857,20.498378 26.1049048,20.8564517 27.0977619,20.8564517 C27.935381,20.8564517 28.7734762,20.1762075 29.6110952,18.8176338 C30.4163333,17.5241644 30.8182381,16.3245218 30.8182381,15.2196634 L30.8182381,10.8911845 C30.8182381,9.91892828 30.6220476,9.2257589 30.230619,8.81071895 C29.8382381,8.39663641 29.1844286,8.18935579 28.2687143,8.18935579 L28.2687143,7.45262397 L34.2177619,6.62780986 L34.2177619,18.6405118 C34.2177619,20.4524221 35.0572857,21.3571804 36.7377619,21.3571804 L36.7377619,22.0939122 L30.8182381,22.9187264 Z M38.2303333,22.5945452 L38.2303333,21.8582921 C39.2241429,21.8582921 39.8960476,21.6562773 40.249381,21.253205 C40.6027143,20.8501328 40.7798571,20.0684024 40.7798571,18.9075352 L40.7798571,10.9207687 C40.7798571,9.94851244 40.5836667,9.25438565 40.1917619,8.84030311 C39.7998571,8.42574187 39.1460476,8.21893995 38.2303333,8.21893995 L38.2303333,7.48220813 L44.1717619,6.65739402 L44.1717619,10.6048213 L44.2374762,10.6048213 C45.2165238,7.97288397 46.7455714,6.65739402 48.824619,6.65739402 C49.2641429,6.65739402 49.6650952,6.81297416 50.0274762,7.12269833 C50.4450952,7.47598493 50.6550952,7.91256675 50.6550952,8.43244378 C50.6550952,9.00785096 50.4765238,9.46980431 50.119381,9.81782512 C49.7622381,10.1658459 49.3317619,10.339617 48.8260476,10.339617 C48.4084286,10.339617 48.0460476,10.2070148 47.7384286,9.94228923 C47.4308095,9.67708493 47.0955714,9.54448278 46.7327143,9.54448278 C46.139381,9.54448278 45.584619,10.0303715 45.0679524,11.0026278 C44.474619,12.1194538 44.1789048,13.483772 44.1789048,15.0965397 L44.1789048,18.9075352 C44.1789048,20.0684024 44.3517619,20.8501328 44.6984286,21.253205 C45.0436667,21.6562773 45.7108095,21.8582921 46.6989048,21.8582921 L46.6989048,22.5945452 L38.2303333,22.5945452 Z M59.4029524,22.9185349 C54.5924762,22.9185349 52.1881905,20.2114404 52.1881905,14.796294 C52.1881905,9.37061598 54.5924762,6.65729828 59.4029524,6.65729828 C64.2234286,6.65729828 66.6348571,9.37061598 66.6348571,14.796294 C66.6348571,20.2114404 64.2234286,22.9185349 59.4029524,22.9185349 Z M55.8510476,14.7881559 C55.8510476,19.4426351 57.0348571,21.7701141 59.4029524,21.7701141 C61.782,21.7701141 62.972,19.4426351 62.972,14.7881559 C62.972,10.1336767 61.782,7.80667651 59.4029524,7.80667651 C57.0348571,7.80667651 55.8510476,10.1336767 55.8510476,14.7881559 Z M68.5891429,22.5945452 L68.5891429,21.8582921 C69.5824762,21.8582921 70.2548571,21.6562773 70.6081905,21.2512902 C70.9615238,20.8482179 71.1386667,20.064094 71.1386667,18.9022694 L71.1386667,10.8968333 C71.1386667,9.9226622 70.942,9.22709928 70.5505714,8.81253804 C70.1586667,8.39654067 69.5048571,8.18926005 68.5891429,8.18926005 L68.5891429,7.45300694 L74.5305714,6.62771411 L74.5305714,10.3104158 L74.5962857,10.3104158 C75.8700952,7.87522751 77.5458095,6.65739402 79.6229524,6.65739402 C81.172,6.65739402 82.2534286,7.04945598 82.8686667,7.83405861 C83.2977143,8.36398852 83.5667619,9.23140766 83.6767619,10.4358373 L83.7424762,10.4358373 C84.3681905,9.30895837 84.9229524,8.51334545 85.4053333,8.04947727 C86.3824762,7.12174091 87.589619,6.65739402 89.0281905,6.65739402 C90.6858095,6.65739402 91.7781905,7.17104785 92.3053333,8.19787679 C92.689619,8.94896986 92.882,10.4052 92.882,12.5684821 L92.882,18.9113648 C92.882,20.0803701 93.0548571,20.8649727 93.4010476,21.2627792 C93.7458095,21.6601069 94.4134286,21.8582921 95.4015238,21.8582921 L95.4015238,22.5945452 L87.2553333,22.5945452 L87.2553333,21.8582921 C88.1353333,21.8582921 88.7258095,21.6591495 89.0291429,21.2618218 C89.3310476,20.8640153 89.4824762,20.0803701 89.4824762,18.90945 L89.4824762,13.4741978 C89.4824762,11.5301641 89.3891429,10.2826507 89.202,9.73022153 C88.9815238,9.05667919 88.4648571,8.71966866 87.652,8.71966866 C86.5291429,8.71966866 85.5677143,9.4047 84.7658095,10.7733266 C84.0610476,11.9662672 83.709619,13.1596866 83.709619,14.3526273 L83.709619,18.90945 C83.709619,20.0693598 83.8634286,20.8501328 84.1724762,21.253205 C84.479619,21.6562773 85.0672381,21.8582921 85.9367619,21.8582921 L85.9367619,22.5945452 L78.0829524,22.5945452 L78.0829524,21.8582921 C78.9524762,21.8582921 79.5400952,21.6562773 79.8477143,21.253205 C80.1558095,20.8501328 80.3100952,20.0693598 80.3100952,18.90945 L80.3100952,13.92179 C80.3100952,12.2424818 80.2777143,11.1931536 80.2115238,10.7733266 C79.9800952,9.4047 79.4139048,8.71966866 78.5129524,8.71966866 C77.2372381,8.71966866 76.219619,9.3989555 75.4615238,10.7565718 C74.8453333,11.8614301 74.5377143,13.0601153 74.5377143,14.3526273 L74.5377143,18.90945 C74.5377143,20.0693598 74.6910476,20.8501328 75.0000952,21.253205 C75.3077143,21.6562773 75.8958095,21.8582921 76.7648571,21.8582921 L76.7648571,22.5945452 L68.5891429,22.5945452 Z M104.126238,22.9185349 C99.3148095,22.9185349 96.911,20.2114404 96.911,14.796294 C96.911,9.37061598 99.3148095,6.65729828 104.126238,6.65729828 C108.945762,6.65729828 111.35719,9.37061598 111.35719,14.796294 C111.35719,20.2114404 108.945762,22.9185349 104.126238,22.9185349 Z M100.573381,14.7881559 C100.573381,19.4426351 101.75719,21.7701141 104.126238,21.7701141 C106.505286,21.7701141 107.69481,19.4426351 107.69481,14.7881559 C107.69481,10.1336767 106.505286,7.80667651 104.126238,7.80667651 C101.75719,7.80667651 100.573381,10.1336767 100.573381,14.7881559 Z M113.311476,22.5945452 L113.311476,21.8582921 C114.30481,21.8582921 114.97719,21.6562773 115.330524,21.2512902 C115.683857,20.8482179 115.861,20.064094 115.861,18.9022694 L115.861,10.8968333 C115.861,9.9226622 115.665286,9.22709928 115.272905,8.81253804 C114.881476,8.39654067 114.227667,8.18926005 113.311476,8.18926005 L113.311476,7.45300694 L119.260048,6.62771411 L119.260048,10.6637024 L119.326238,10.6637024 C120.810524,7.99298971 122.658619,6.65739402 124.869571,6.65739402 C126.462429,6.65739402 127.573857,7.08823134 128.201,7.94894856 C128.705762,8.6339799 128.959571,9.70915837 128.959571,11.1783136 L128.959571,18.9113648 C128.959571,20.0693598 129.132905,20.8510902 129.478619,21.253205 C129.823857,21.6562773 130.491476,21.8582921 131.480048,21.8582921 L131.480048,22.5945452 L123.011,22.5945452 L123.011,21.8582921 C124.004333,21.8582921 124.676714,21.6562773 125.030048,21.253205 C125.383857,20.8501328 125.560524,20.0693598 125.560524,18.90945 L125.560524,13.92179 C125.560524,11.8781849 125.409571,10.5009416 125.105762,9.78814522 C124.803381,9.07582751 124.231476,8.71966866 123.395286,8.71966866 C122.446714,8.71966866 121.508143,9.3989555 120.583381,10.7565718 C119.701,12.0385522 119.260048,13.2367586 119.260048,14.3526273 L119.260048,18.90945 C119.260048,20.0693598 119.43481,20.8501328 119.786714,21.253205 C120.138143,21.6562773 120.802905,21.8582921 121.780524,21.8582921 L121.780524,22.5945452 L113.311476,22.5945452 Z M146.178952,20.8235166 L146.178952,22.0360843 C144.600381,22.6248953 143.053714,22.9188221 141.540857,22.9188221 C138.92181,22.9188221 136.898952,22.179218 135.472762,20.7019247 C134.014667,19.1911219 133.285619,17.0407649 133.285619,14.2503752 C133.285619,9.1880367 135.633714,6.6575855 140.330857,6.6575855 C144.44419,6.6575855 146.50181,8.79788957 146.50181,13.0794551 L136.948952,13.0794551 C136.948952,15.2494391 137.375619,17.076668 138.231333,18.5625781 C139.306571,20.4448585 140.925143,21.3869561 143.085619,21.3869561 C144.117048,21.3869561 145.148476,21.1993025 146.178952,20.8235166 Z M136.948952,11.6950312 L143.102286,11.6950312 C143.102286,9.10282665 142.13419,7.80648502 140.198476,7.80648502 C139.054667,7.80648502 138.191333,8.28806541 137.609429,9.2526623 C137.168476,9.97263933 136.948952,10.7864432 136.948952,11.6950312 Z M162.93481,10.7689703 L157.426238,24.7625665 C156.733381,26.5309143 156.19481,27.6587507 155.810524,28.1446394 C154.941952,29.216467 153.655762,29.7530988 151.951,29.7530988 C150.973381,29.7530988 150.132429,29.5587433 149.429571,29.1719471 C148.615762,28.7300995 148.208143,28.1336292 148.208143,27.3806213 C148.208143,26.8506914 148.389571,26.4102799 148.752429,26.0622591 C149.115286,25.714717 149.566238,25.5404672 150.103857,25.5404672 C150.851476,25.5404672 151.428143,25.9531136 151.83481,26.777449 C152.241952,27.6022631 152.708619,28.0149095 153.236238,28.0149095 C154.016714,28.0149095 154.746714,27.2001483 155.428143,25.5706258 L156.253381,23.6376024 L150.687667,10.6373256 C150.205286,9.53055237 149.799571,8.81249017 149.469571,8.48122414 C148.953381,7.9728361 148.152429,7.71816337 147.066238,7.71816337 L147.066238,6.98143156 L155.41719,6.98143156 L155.41719,7.71816337 C154.245286,7.71816337 153.659571,8.01161146 153.659571,8.59707151 C153.659571,8.80722438 153.828619,9.326144 154.169095,10.1567026 L157.83719,19.2952409 L161.071952,10.6373256 C161.43481,9.67512222 161.61719,9.09971505 161.61719,8.91206146 C161.61719,8.11644854 161.005762,7.71816337 159.783857,7.71816337 L159.783857,6.98143156 L166.611476,6.98143156 L166.611476,7.71816337 C165.478619,7.71816337 164.665762,7.96182581 164.171,8.44819328 C163.830524,8.77945931 163.418619,9.55257294 162.93481,10.7689703 Z M0.0879047619,56.5309308 L0.0879047619,55.6769155 C1.28647619,55.6769155 2.06504762,55.4806451 2.42314286,55.0890619 C2.7812381,54.6979573 2.95980952,53.8401123 2.95980952,52.5155269 L2.95980952,37.9517894 C2.95980952,36.6281614 2.7812381,35.7698377 2.42314286,35.3787332 C2.06504762,34.9866712 1.28647619,34.7904009 0.0879047619,34.7904009 L0.0879047619,33.9363856 L9.55266667,33.9363856 L9.55266667,34.7904009 C8.36409524,34.7904009 7.58885714,34.9895434 7.226,35.3863925 C6.86266667,35.7837202 6.6812381,36.6391717 6.6812381,37.9517894 L6.6812381,52.5155269 C6.6812381,53.8401123 6.86266667,54.6979573 7.226,55.0890619 C7.58885714,55.4806451 8.36409524,55.6769155 9.55266667,55.6769155 L9.55266667,56.5309308 L0.0879047619,56.5309308 Z M11.012619,56.5309308 L11.012619,55.7946777 C12.0059524,55.7946777 12.6783333,55.5926628 13.0321429,55.1876757 C13.3854762,54.7850822 13.5621429,54.0004796 13.5621429,52.8381762 L13.5621429,44.8332188 C13.5621429,43.8590478 13.3659524,43.1630061 12.9740476,42.7489236 C12.5821429,42.3329262 11.9283333,42.1256456 11.012619,42.1256456 L11.012619,41.3893925 L16.9611905,40.5645784 L16.9611905,44.6000879 L17.027381,44.6000879 C18.5116667,41.929854 20.3597619,40.5937796 22.5702381,40.5937796 C24.1635714,40.5937796 25.2754762,41.0246169 25.9016667,41.8853341 C26.407381,42.5703655 26.6607143,43.6455439 26.6607143,45.1146992 L26.6607143,52.8477504 C26.6607143,54.0062241 26.8340476,54.7874757 27.1802381,55.1895906 C27.5254762,55.5926628 28.1930952,55.7946777 29.1807143,55.7946777 L29.1807143,56.5309308 L20.7121429,56.5309308 L20.7121429,55.7946777 C21.7059524,55.7946777 22.3778571,55.5926628 22.7311905,55.1895906 C23.085,54.7865183 23.2616667,54.0062241 23.2616667,52.8458356 L23.2616667,47.8581755 C23.2616667,45.8145705 23.1107143,44.4373272 22.8064286,43.7250095 C22.5040476,43.0122131 21.9330952,42.6560542 21.0959524,42.6560542 C20.147381,42.6560542 19.2092857,43.3353411 18.2845238,44.693436 C17.4021429,45.974459 16.9611905,47.1731442 16.9611905,48.2890128 L16.9611905,52.8458356 C16.9611905,54.0062241 17.1359524,54.7865183 17.4878571,55.1895906 C17.8392857,55.5926628 18.5040476,55.7946777 19.4816667,55.7946777 L19.4816667,56.5309308 L11.012619,56.5309308 Z M41.0379524,45.1891862 L40.0708095,45.1891862 C39.9722381,44.3457024 39.7084286,43.6242893 39.2808095,43.0254254 C38.6765238,42.1709314 37.824619,41.7429663 36.7274762,41.7429663 C36.0131905,41.7429663 35.4198571,41.955034 34.9474762,42.3806056 C34.474619,42.8066558 34.239381,43.3284477 34.239381,43.9474173 C34.239381,44.6003752 34.5965238,45.2145577 35.3117619,45.7885288 C35.7512857,46.1303264 36.5608095,46.5985029 37.7431905,47.1944945 C38.924619,47.7904862 39.7460476,48.2701517 40.2074762,48.6330125 C41.4050952,49.5593127 42.0050952,50.7670933 42.0050952,52.2568331 C42.0050952,53.6680646 41.4784286,54.7820185 40.4250952,55.5982158 C39.339381,56.4359551 37.8412857,56.8548247 35.9327143,56.8548247 C34.3641429,56.8548247 32.8008095,56.6561608 31.2431905,56.2583544 L31.0455714,51.6996168 L32.0417619,51.6996168 C32.0417619,52.7484663 32.359381,53.6594479 32.9950952,54.4311254 C33.7184286,55.2817898 34.667,55.7059252 35.8403333,55.7059252 C36.6517619,55.7059252 37.3474762,55.4914639 37.9289048,55.0625414 C38.5755714,54.5895778 38.8989048,53.9452367 38.8989048,53.129518 C38.8989048,52.237206 38.2660476,51.4339338 37.0022381,50.7177864 C35.859381,50.1117419 34.7165238,49.5042613 33.5736667,48.8982168 C32.694619,48.2907362 32.0784286,47.7296902 31.7265238,47.2102919 C31.3312857,46.6042474 31.1331905,45.860335 31.1331905,44.9780759 C31.1331905,43.5223244 31.714619,42.4083706 32.8779524,41.6357357 C33.9079524,40.9406515 35.2841429,40.5935881 37.007,40.5935881 C38.037,40.5935881 39.3155714,40.7884223 40.8403333,41.1742611 L41.0379524,45.1891862 Z M54.1734286,55.1167791 L54.1734286,56.4873205 C53.5472381,56.732419 52.909619,56.8549683 52.2610476,56.8549683 C50.4810476,56.8549683 49.1953333,56.6117846 48.404381,56.1254171 C47.3272381,55.4633638 46.7886667,54.2249458 46.7886667,52.4135142 L46.7886667,42.302241 L44.0639048,42.302241 L44.0639048,41.3649305 C47.2200952,41.3649305 48.9286667,39.3409525 49.192,35.2910817 L50.1881905,35.2910817 L50.1881905,40.9182958 L54.5834286,40.9182958 L54.5834286,42.302241 L50.1881905,42.302241 L50.1881905,52.4020252 C50.1881905,53.4934798 50.4253333,54.2675508 50.899619,54.7204087 C51.3172381,55.1177365 51.9958095,55.3159217 52.9324762,55.3159217 C53.3629524,55.3159217 53.7767619,55.2493812 54.1734286,55.1167791 Z M60.3985714,37.824836 C59.8052381,37.824836 59.307619,37.6204276 58.9066667,37.2116109 C58.5057143,36.8027941 58.3052381,36.2948848 58.3052381,35.6869255 C58.3052381,35.0904551 58.5057143,34.5906838 58.9066667,34.1876116 C59.307619,33.7845393 59.8052381,33.5825245 60.3985714,33.5825245 C60.9919048,33.5825245 61.4947619,33.7845393 61.9066667,34.1876116 C62.3190476,34.5906838 62.5247619,35.0904551 62.5247619,35.6869255 C62.5247619,36.2838745 62.3190476,36.7889116 61.9066667,37.2034728 C61.4947619,37.6175554 60.9919048,37.824836 60.3985714,37.824836 Z M56.1366667,56.530835 L56.1366667,55.7945819 C57.1247619,55.7945819 57.7914286,55.5944819 58.137619,55.1971542 C58.4838095,54.7974329 58.6566667,54.0113941 58.6566667,52.8380805 L58.6566667,44.8331231 C58.6566667,43.858952 58.4619048,43.1629104 58.0714286,42.7488278 C57.6814286,42.3328305 57.0366667,42.1255499 56.1366667,42.1255499 L56.1366667,41.3892967 L62.0561905,40.5644826 L62.0561905,52.8409527 C62.0561905,54.0137877 62.2290476,54.7993477 62.5771429,55.1971542 C62.9252381,55.5954393 63.6009524,55.7945819 64.6052381,55.7945819 L64.6052381,56.530835 L56.1366667,56.530835 Z M75.9459048,55.1167791 L75.9459048,56.4873205 C75.3197143,56.732419 74.6825714,56.8549683 74.0335238,56.8549683 C72.2535238,56.8549683 70.9682857,56.6117846 70.1768571,56.1254171 C69.0997143,55.4633638 68.561619,54.2249458 68.561619,52.4135142 L68.561619,42.302241 L65.836381,42.302241 L65.836381,41.3649305 C68.9925714,41.3649305 70.701619,39.3409525 70.9644762,35.2910817 L71.9606667,35.2910817 L71.9606667,40.9182958 L76.3559048,40.9182958 L76.3559048,42.302241 L71.9606667,42.302241 L71.9606667,52.4020252 C71.9606667,53.4934798 72.1978095,54.2675508 72.6720952,54.7204087 C73.0897143,55.1177365 73.7682857,55.3159217 74.7054286,55.3159217 C75.1354286,55.3159217 75.5497143,55.2493812 75.9459048,55.1167791 Z M89.872619,56.8548726 L89.872619,52.8485642 L89.8064286,52.8485642 C88.4102381,55.5192769 86.6940476,56.8548726 84.6592857,56.8548726 C82.9111905,56.8548726 81.6902381,56.4283436 80.9978571,55.578158 C80.4478571,54.8921692 80.1730952,53.8141185 80.1730952,52.3430484 L80.1730952,44.8292455 C80.1730952,43.8565106 79.977381,43.1628625 79.585,42.7478226 C79.1930952,42.3327826 78.5392857,42.125502 77.6235714,42.125502 L77.6235714,41.3892489 L83.572619,40.5644348 L83.572619,49.591434 C83.572619,51.6230714 83.7545238,52.9983998 84.1178571,53.716462 C84.4816667,54.4345242 85.1592857,54.7925979 86.1516667,54.7925979 C86.9897619,54.7925979 87.8278571,54.1123537 88.6654762,52.7542587 C89.4702381,51.4598319 89.872619,50.2611467 89.872619,49.1562883 L89.872619,44.8273307 C89.872619,43.8555532 89.6769048,43.1619051 89.285,42.7468651 C88.892619,42.3327826 88.2388095,42.125502 87.3230952,42.125502 L87.3230952,41.3892489 L93.2716667,40.5644348 L93.2716667,52.5771367 C93.2716667,54.3885683 94.1116667,55.2933266 95.7921429,55.2933266 L95.7921429,56.0300584 L89.872619,56.8548726 Z M106.947095,55.1167791 L106.947095,56.4873205 C106.321381,56.732419 105.683286,56.8549683 105.034714,56.8549683 C103.254714,56.8549683 101.969476,56.6117846 101.178048,56.1254171 C100.100905,55.4633638 99.5623333,54.2249458 99.5623333,52.4135142 L99.5623333,42.302241 L96.8375714,42.302241 L96.8375714,41.3649305 C99.9937619,41.3649305 101.702333,39.3409525 101.965667,35.2910817 L102.961857,35.2910817 L102.961857,40.9182958 L107.357095,40.9182958 L107.357095,42.302241 L102.961857,42.302241 L102.961857,52.4020252 C102.961857,53.4934798 103.199,54.2675508 103.673286,54.7204087 C104.090905,55.1177365 104.769952,55.3159217 105.706619,55.3159217 C106.137095,55.3159217 106.550905,55.2493812 106.947095,55.1167791 Z M113.172,37.824836 C112.578667,37.824836 112.082,37.6204276 111.681048,37.2116109 C111.279143,36.8027941 111.079143,36.2948848 111.079143,35.6869255 C111.079143,35.0904551 111.279143,34.5906838 111.681048,34.1876116 C112.082,33.7845393 112.578667,33.5825245 113.172,33.5825245 C113.765333,33.5825245 114.268667,33.7845393 114.680571,34.1876116 C115.092476,34.5906838 115.299143,35.0904551 115.299143,35.6869255 C115.299143,36.2838745 115.092476,36.7889116 114.680571,37.2034728 C114.268667,37.6175554 113.765333,37.824836 113.172,37.824836 Z M108.910571,56.530835 L108.910571,55.7945819 C109.899143,55.7945819 110.564857,55.5944819 110.911048,55.1971542 C111.257714,54.7974329 111.431048,54.0113941 111.431048,52.8380805 L111.431048,44.8331231 C111.431048,43.858952 111.23581,43.1629104 110.84581,42.7488278 C110.455333,42.3328305 109.810571,42.1255499 108.910571,42.1255499 L108.910571,41.3892967 L114.830095,40.5644826 L114.830095,52.8409527 C114.830095,54.0137877 115.003429,54.7993477 115.351048,55.1971542 C115.699143,55.5954393 116.375333,55.7945819 117.379619,55.7945819 L117.379619,56.530835 L108.910571,56.530835 Z M126.13981,56.8547289 C121.329333,56.8547289 118.925524,54.1476344 118.925524,48.732488 C118.925524,43.3072888 121.329333,40.5939711 126.13981,40.5939711 C130.960286,40.5939711 133.371714,43.3072888 133.371714,48.732488 C133.371714,54.1476344 130.960286,56.8547289 126.13981,56.8547289 Z M122.587905,48.72435 C122.587905,53.3788292 123.771714,55.7058294 126.13981,55.7058294 C128.518857,55.7058294 129.708381,53.3788292 129.708381,48.72435 C129.708381,44.0698708 128.518857,41.7428706 126.13981,41.7428706 C123.771714,41.7428706 122.587905,44.0698708 122.587905,48.72435 Z M135.326,56.5309308 L135.326,55.7946777 C136.319333,55.7946777 136.991714,55.5926628 137.345048,55.1876757 C137.698381,54.7850822 137.875048,54.0004796 137.875048,52.8381762 L137.875048,44.8332188 C137.875048,43.8590478 137.678857,43.1630061 137.287429,42.7489236 C136.896,42.3329262 136.24219,42.1256456 135.326,42.1256456 L135.326,41.3893925 L141.274571,40.5645784 L141.274571,44.6000879 L141.340762,44.6000879 C142.825048,41.929854 144.673143,40.5937796 146.883619,40.5937796 C148.476952,40.5937796 149.588381,41.0246169 150.215524,41.8853341 C150.720286,42.5703655 150.974095,43.6455439 150.974095,45.1146992 L150.974095,52.8477504 C150.974095,54.0062241 151.147429,54.7874757 151.493143,55.1895906 C151.838381,55.5926628 152.506,55.7946777 153.494571,55.7946777 L153.494571,56.5309308 L145.025524,56.5309308 L145.025524,55.7946777 C146.018857,55.7946777 146.691238,55.5926628 147.044571,55.1895906 C147.398381,54.7865183 147.575048,54.0062241 147.575048,52.8458356 L147.575048,47.8581755 C147.575048,45.8145705 147.424095,44.4373272 147.120286,43.7250095 C146.817905,43.0122131 146.246,42.6560542 145.408857,42.6560542 C144.460286,42.6560542 143.522667,43.3353411 142.597905,44.693436 C141.715524,45.974459 141.274571,47.1731442 141.274571,48.2890128 L141.274571,52.8458356 C141.274571,54.0062241 141.449333,54.7865183 141.801238,55.1895906 C142.152667,55.5926628 142.817429,55.7946777 143.795048,55.7946777 L143.795048,56.5309308 L135.326,56.5309308 Z M170.743429,55.3913661 L170.743429,56.2554342 C169.48819,56.6551555 168.303905,56.8547768 167.190571,56.8547768 C165.73819,56.8547768 164.846286,56.0874077 164.514857,54.551712 C163.12819,56.0874077 161.586286,56.8547768 159.890571,56.8547768 C158.700095,56.8547768 157.662476,56.4818632 156.77581,55.7365146 C155.889619,54.9906873 155.446762,54.0763548 155.446762,52.9944744 C155.446762,49.8455323 158.464857,48.1279275 164.501048,47.8407027 L164.501048,46.1379378 C164.501048,44.7946828 164.401524,43.8363091 164.202476,43.2628168 C163.870571,42.2498704 163.190571,41.7429184 162.163905,41.7429184 C161.223429,41.7429184 160.592,42.0981199 160.272,42.8075653 C160.085333,43.4633955 159.902,44.1177895 159.725333,44.7721835 C159.438667,45.4825864 158.871524,45.8377878 158.023905,45.8377878 C157.506286,45.8377878 157.065333,45.6941754 156.702476,45.4055144 C156.295333,45.0967476 156.091524,44.6601658 156.091524,44.0948115 C156.091524,42.9669751 156.778667,42.0823225 158.156286,41.4398962 C159.323429,40.875978 160.699143,40.5935402 162.284857,40.5935402 C164.366286,40.5935402 165.83581,41.0401749 166.694857,41.9334443 C167.498667,42.7711835 167.900571,44.1766706 167.900571,46.1494268 L167.900571,52.8953818 C167.900571,54.7700029 168.407238,55.7058773 169.422,55.7058773 C169.641524,55.7058773 170.082476,55.6010402 170.743429,55.3913661 Z M164.501048,51.0542704 L164.501048,49.0776845 C160.945333,49.1782132 159.16819,50.323283 159.16819,52.5157663 C159.16819,53.213244 159.343905,53.7829067 159.696286,54.2266692 C160.081524,54.7015476 160.616286,54.9399443 161.297714,54.9399443 C162.277238,54.9399443 163.056762,54.6005402 163.634381,53.9188598 C164.212,53.2381369 164.501048,52.2821567 164.501048,51.0542704 Z M171.362095,56.5309308 L171.362095,55.7946777 C172.361143,55.7946777 173.031619,55.5964925 173.372095,55.1991647 C173.712571,54.8013583 173.882571,54.0167556 173.882571,52.8458356 L173.882571,37.2418652 C173.882571,36.2700877 173.687333,35.5750035 173.29781,35.1551765 C172.906857,34.7353494 172.262571,34.5251966 171.362095,34.5251966 L171.362095,33.7889434 L177.282095,32.9641293 L177.282095,52.8458356 C177.282095,54.0062241 177.458762,54.7865183 177.812095,55.1895906 C178.164476,55.5926628 178.836857,55.7946777 179.831143,55.7946777 L179.831143,56.5309308 L171.362095,56.5309308 Z M0.0879047619,90.4673163 L0.0879047619,89.6128223 C1.28647619,89.6128223 2.06504762,89.4170307 2.42314286,89.0254474 C2.7812381,88.6343429 2.95980952,87.7764979 2.95980952,86.4514338 L2.95980952,71.8881749 C2.95980952,70.5645469 2.7812381,69.7062233 2.42314286,69.3151187 C2.06504762,68.922578 1.28647619,68.7267864 0.0879047619,68.7267864 L0.0879047619,67.8727711 L9.55266667,67.8727711 L9.55266667,68.7267864 C8.36409524,68.7267864 7.58885714,68.9254503 7.226,69.3222993 C6.86266667,69.7201058 6.6812381,70.5750785 6.6812381,71.8881749 L6.6812381,86.4514338 C6.6812381,87.7764979 6.86266667,88.6343429 7.226,89.0254474 C7.58885714,89.4170307 8.36409524,89.6128223 9.55266667,89.6128223 L9.55266667,90.4673163 L0.0879047619,90.4673163 Z M11.012619,90.4673163 L11.012619,89.7305845 C12.0059524,89.7305845 12.6783333,89.5295271 13.0321429,89.1240613 C13.3854762,88.720989 13.5621429,87.9363864 13.5621429,86.7750405 L13.5621429,78.7696044 C13.5621429,77.7954333 13.3659524,77.0993917 12.9740476,76.6853091 C12.5821429,76.2693118 11.9283333,76.0620311 11.012619,76.0620311 L11.012619,75.3252993 L16.9611905,74.5004852 L16.9611905,78.5364735 L17.027381,78.5364735 C18.5116667,75.8657608 20.3597619,74.5301651 22.5702381,74.5301651 C24.1635714,74.5301651 25.2754762,74.9605237 25.9016667,75.8217197 C26.407381,76.506751 26.6607143,77.5819295 26.6607143,79.0510847 L26.6607143,86.7841359 C26.6607143,87.9421309 26.8340476,88.7233826 27.1802381,89.1259761 C27.5254762,89.5295271 28.1930952,89.7305845 29.1807143,89.7305845 L29.1807143,90.4673163 L20.7121429,90.4673163 L20.7121429,89.7305845 C21.7059524,89.7305845 22.3778571,89.5295271 22.7311905,89.1259761 C23.085,88.7224252 23.2616667,87.9421309 23.2616667,86.7822211 L23.2616667,81.7945611 C23.2616667,79.7504773 23.1107143,78.373234 22.8064286,77.6609163 C22.5040476,76.9485986 21.9330952,76.5924398 21.0959524,76.5924398 C20.147381,76.5924398 19.2092857,77.2717266 18.2845238,78.6293429 C17.4021429,79.9108445 16.9611905,81.1095297 16.9611905,82.2253984 L16.9611905,86.7822211 C16.9611905,87.9421309 17.1359524,88.7224252 17.4878571,89.1259761 C17.8392857,89.5295271 18.5040476,89.7305845 19.4816667,89.7305845 L19.4816667,90.4673163 L11.012619,90.4673163 Z M37.4920952,90.4673163 L32.656381,78.5431754 C32.1830476,77.3598089 31.7697143,76.6139816 31.4182857,76.3042575 C31.0006667,75.9284716 30.2401905,75.6900749 29.1406667,75.5909823 L29.1406667,74.8542505 L37.2578095,74.8542505 L37.2578095,75.5909823 C36.1544762,75.5909823 35.6020952,75.8844304 35.6020952,76.4698905 C35.6020952,76.7461051 35.7568571,77.2769924 36.0644762,78.0625524 L39.4868571,86.6716395 L42.654,78.476635 C43.004,77.5488986 43.1787619,76.9950333 43.1787619,76.8174326 C43.1787619,76.0002778 42.5830476,75.5909823 41.3897143,75.5909823 L41.3897143,74.8542505 L48.041619,74.8542505 L48.041619,75.5909823 C46.9225714,75.6350235 46.1430476,75.8676756 45.7044762,76.2875027 C45.354,76.6187687 44.9420952,77.3933185 44.4701905,78.6092371 L39.8949524,90.4673163 L37.4920952,90.4673163 Z M62.0448571,88.695809 L62.0448571,89.9083767 C60.4662857,90.4976664 58.919619,90.7911145 57.4067619,90.7911145 C54.7867619,90.7911145 52.7639048,90.0519891 51.3391429,88.5746958 C49.8800952,87.063893 49.1515238,84.913536 49.1515238,82.1231463 C49.1515238,77.0608078 51.4991429,74.5303566 56.1962857,74.5303566 C60.309619,74.5303566 62.3672381,76.6706607 62.3672381,80.9522262 L52.814381,80.9522262 C52.814381,83.1222102 53.242,84.9489604 54.0972381,86.4353492 C55.1724762,88.3176296 56.7905714,89.2592485 58.9515238,89.2592485 C59.9829524,89.2592485 61.0139048,89.0715949 62.0448571,88.695809 Z M52.814381,79.5673236 L58.9681905,79.5673236 C58.9681905,76.975119 58.0000952,75.6787774 56.064381,75.6787774 C54.9205714,75.6787774 54.0567619,76.1603578 53.4748571,77.1249547 C53.0339048,77.8449317 52.814381,78.6592143 52.814381,79.5673236 Z M74.8289048,79.1255717 L73.8617619,79.1255717 C73.7631905,78.2825667 73.4989048,77.5606748 73.0712857,76.961811 C72.467,76.1068382 71.6155714,75.6788732 70.5184286,75.6788732 C69.8041429,75.6788732 69.2108095,75.8918983 68.7384286,76.3169911 C68.2655714,76.7430413 68.0303333,77.2653119 68.0303333,77.8838028 C68.0303333,78.5367607 68.3874762,79.1504645 69.1027143,79.7249143 C69.5422381,80.0667119 70.3517619,80.5348885 71.5341429,81.1308801 C72.7150952,81.726393 73.5365238,82.2060586 73.9984286,82.569398 C75.1955714,83.4956983 75.7955714,84.7030002 75.7955714,86.1932186 C75.7955714,87.6044502 75.269381,88.7179253 74.2160476,89.5346014 C73.1303333,90.3723406 71.6317619,90.7912102 69.7231905,90.7912102 C68.154619,90.7912102 66.5917619,90.5925464 65.0341429,90.1947399 L64.8365238,85.6364811 L65.8327143,85.6364811 C65.8327143,86.6843732 66.1503333,87.5958334 66.7855714,88.367511 C67.509381,89.2181753 68.4579524,89.6427894 69.6312857,89.6427894 C70.4422381,89.6427894 71.1384286,89.4278495 71.7198571,88.998927 C72.3665238,88.5259633 72.6898571,87.8811435 72.6898571,87.0659035 C72.6898571,86.1740703 72.057,85.3698406 70.7927143,84.6536933 C69.6503333,84.0476488 68.5074762,83.4406468 67.364619,82.8346023 C66.4855714,82.2276004 65.8689048,81.6655971 65.5174762,81.1466775 C65.1217619,80.540633 64.9241429,79.7967205 64.9241429,78.9139827 C64.9241429,77.45871 65.5055714,76.3442775 66.6684286,75.5721212 C67.6989048,74.8775157 69.0750952,74.5299736 70.7974762,74.5299736 C71.8279524,74.5299736 73.1065238,74.7243291 74.6308095,75.1111253 L74.8289048,79.1255717 Z M87.9641429,89.0531646 L87.9641429,90.4241847 C87.3374762,90.6688046 86.7008095,90.7913539 86.0517619,90.7913539 C84.2717619,90.7913539 82.9860476,90.5481701 82.1950952,90.0622814 C81.1179524,89.3997493 80.579381,88.1613314 80.579381,86.3494211 L80.579381,76.2386266 L77.854619,76.2386266 L77.854619,75.3013161 C81.0108095,75.3013161 82.719381,73.2773381 82.9827143,69.2274672 L83.9789048,69.2274672 L83.9789048,74.8542027 L88.3741429,74.8542027 L88.3741429,76.2386266 L83.9789048,76.2386266 L83.9789048,86.3384108 C83.9789048,87.430344 84.2160476,88.2039364 84.6903333,88.6563156 C85.1079524,89.054122 85.7865238,89.2518285 86.7236667,89.2518285 C87.1536667,89.2518285 87.5674762,89.1857668 87.9641429,89.0531646 Z M97.1347143,90.7911145 C92.3247143,90.7911145 89.9199524,88.08402 89.9199524,82.6688736 C89.9199524,77.2431956 92.3247143,74.5303566 97.1347143,74.5303566 C101.955667,74.5303566 104.366143,77.2431956 104.366143,82.6688736 C104.366143,88.08402 101.955667,90.7911145 97.1347143,90.7911145 Z M93.5832857,82.6607356 C93.5832857,87.3156934 94.7670952,89.6426937 97.1347143,89.6426937 C99.5142381,89.6426937 100.703762,87.3156934 100.703762,82.6607356 C100.703762,78.0057777 99.5142381,75.6787774 97.1347143,75.6787774 C94.7670952,75.6787774 93.5832857,78.0057777 93.5832857,82.6607356 Z M106.621571,90.4673163 L106.621571,89.7305845 C107.614905,89.7305845 108.287286,89.5295271 108.640619,89.1259761 C108.993952,88.7224252 109.171095,87.9411735 109.171095,86.7803063 L109.171095,78.7930611 C109.171095,77.8212835 108.974429,77.1271567 108.583,76.7130742 C108.190619,76.298513 107.53681,76.0917111 106.621571,76.0917111 L106.621571,75.3554579 L112.563,74.5301651 L112.563,78.4775924 L112.628714,78.4775924 C113.607286,75.8456551 115.136333,74.5301651 117.214905,74.5301651 C117.654905,74.5301651 118.055857,74.6857453 118.418238,74.9954694 C118.835857,75.348756 119.046333,75.7848591 119.046333,76.3052149 C119.046333,76.8801433 118.867762,77.3425754 118.510619,77.6905962 C118.153476,78.038617 117.722524,78.2123881 117.21681,78.2123881 C116.79919,78.2123881 116.437286,78.0797859 116.129667,77.8145816 C115.821571,77.549856 115.48681,77.4167752 115.123952,77.4167752 C114.530619,77.4167752 113.975381,77.9031426 113.45919,78.8753989 C112.865857,79.9917462 112.570143,81.3560644 112.570143,82.9688321 L112.570143,86.7803063 C112.570143,87.9411735 112.743,88.7224252 113.08919,89.1259761 C113.434429,89.5295271 114.102048,89.7305845 115.089667,89.7305845 L115.089667,90.4673163 L106.621571,90.4673163 Z M137.167524,74.5304045 C140.851333,74.5304045 143.196095,76.0321119 143.196095,78.9943578 C143.196095,80.9063181 141.947048,82.2246803 140.422762,82.9144987 C139.457524,83.352038 137.956095,83.5736798 135.963238,83.5736798 L135.203238,83.5736798 L135.203238,87.6604112 C135.203238,88.5541593 135.320381,89.1348322 135.552762,89.3856753 C135.78181,89.6341248 136.300857,89.7605038 137.093238,89.7605038 L137.210381,89.7605038 L137.210381,90.5853179 L129.89181,90.5853179 L129.89181,89.7605038 L130.008952,89.7605038 C130.802286,89.7605038 131.320381,89.6346035 131.548952,89.3866327 C131.782286,89.1357896 131.899905,88.5551167 131.899905,87.662326 L131.899905,77.4529176 C131.899905,76.5673076 131.78181,75.9890282 131.548952,75.7348341 C131.319429,75.4830337 130.802286,75.3552186 130.008952,75.3552186 L129.89181,75.3552186 L129.89181,74.5304045 L137.167524,74.5304045 Z M135.203238,77.4529176 L135.203238,82.2486157 L135.918476,82.2486157 C137.187048,82.2486157 138.092762,82.0935143 138.613714,81.7895346 C139.402286,81.3271026 139.80419,80.3864411 139.80419,78.9943578 C139.80419,77.7401425 139.503714,76.8708085 138.912286,76.4093339 C138.448476,76.0426435 137.648476,75.8554686 136.532286,75.8554686 C135.914667,75.8554686 135.52419,75.9780179 135.369905,76.2183294 C135.29419,76.337049 135.203238,76.6477306 135.203238,77.4529176 Z M155.371571,86.5937058 L156.261571,86.5937058 L156.113952,90.5851743 L143.972048,90.5851743 L143.972048,89.7603601 L144.08919,89.7603601 C144.881571,89.7603601 145.401571,89.6349386 145.630143,89.3864891 C145.861571,89.1361247 145.978714,88.5564092 145.978714,87.6621824 L145.978714,77.452774 C145.978714,76.567164 145.861571,75.9888845 145.630143,75.7346905 C145.400619,75.48289 144.881571,75.355075 144.08919,75.355075 L143.972048,75.355075 L143.972048,74.5302609 L151.290619,74.5302609 L151.290619,75.355075 L151.173476,75.355075 C150.380143,75.355075 149.863,75.48289 149.632048,75.7346905 C149.400619,75.9893633 149.282524,76.5676427 149.282524,77.452774 L149.282524,87.6607463 C149.282524,88.4606676 149.401571,88.781402 149.501095,88.9092171 C149.685381,89.1413905 150.105381,89.2591527 150.750143,89.2591527 L152.50681,89.2591527 C153.388714,89.2591527 154.045381,89.0561805 154.460143,88.6535869 C154.849667,88.2859391 155.14919,87.6238857 155.351095,86.6860965 L155.371571,86.5937058 Z M170.042333,88.0616165 L170.225667,87.9361949 L170.225667,89.8850157 L170.154714,89.9156531 C168.784714,90.5159531 167.24281,90.8208901 165.572333,90.8208901 C163.069476,90.8208901 160.740905,90.0597442 159.591381,88.5589942 C158.534714,87.1740916 157.999,85.0500636 157.999,82.2448339 C157.999,79.8010289 158.451857,77.9158763 159.346619,76.6420339 C160.434714,75.0843177 162.718048,74.2944492 165.193762,74.2944492 C166.897571,74.2944492 168.498524,74.534282 169.950429,75.0067669 L170.028524,75.0326172 L170.186619,79.1992928 L169.266619,79.1992928 L169.258048,79.0896686 C169.206143,78.3548516 168.86281,77.6300875 168.239,76.935482 C167.480905,76.0919983 166.53519,75.6640332 165.429,75.6640332 C162.828048,75.6640332 161.508048,77.8775796 161.508048,82.2419617 C161.508048,84.2688119 161.859476,85.9241846 162.552333,87.1611665 C163.334714,88.5537284 164.484238,89.2593442 165.968524,89.2593442 C167.51281,89.2593442 168.883286,88.8567507 170.042333,88.0616165 Z" fill="#000000"></path>
    </g>
</svg>